<svg width="58" height="59" viewBox="0 0 58 59" fill="none" xmlns="http://www.w3.org/2000/svg">
<path d="M29.1953 58.6616C36.7701 58.6616 44.0347 55.5714 49.3909 50.0708C54.7471 44.5702 57.7562 37.1098 57.7562 29.3308C57.7562 21.5518 54.7471 14.0914 49.3909 8.59079C44.0347 3.0902 36.7701 0 29.1953 0C21.6204 0 14.3558 3.0902 8.99959 8.59079C3.64337 14.0914 0.634277 21.5518 0.634277 29.3308C0.634277 37.1098 3.64337 44.5702 8.99959 50.0708C14.3558 55.5714 21.6204 58.6616 29.1953 58.6616ZM22.8806 35.8156C26.3615 39.3903 32.0179 39.3903 35.4988 35.8156C36.5475 34.7386 38.2433 34.7386 39.2809 35.8156C40.3184 36.8926 40.3296 38.6341 39.2809 39.6997C33.7025 45.4283 24.6657 45.4283 19.0873 39.6997C13.509 33.971 13.509 24.6906 19.0873 18.9619C24.6657 13.2332 33.7025 13.2332 39.2809 18.9619C40.3296 20.0389 40.3296 21.7804 39.2809 22.8459C38.2321 23.9115 36.5363 23.9229 35.4988 22.8459C32.0179 19.2712 26.3615 19.2712 22.8806 22.8459C19.3997 26.4206 19.3997 32.2295 22.8806 35.8042V35.8156Z" fill="white"/>
</svg>
