<svg width="20" height="21" viewBox="0 0 20 21" fill="none" xmlns="http://www.w3.org/2000/svg">
<path d="M9.66 1.96875C11.7112 1.96875 13.6784 2.86758 15.1288 4.4675C16.5793 6.06742 17.3941 8.23737 17.3941 10.5C17.3941 12.7626 16.5793 14.9326 15.1288 16.5325C13.6784 18.1324 11.7112 19.0312 9.66 19.0312C7.60879 19.0312 5.64159 18.1324 4.19117 16.5325C2.74074 14.9326 1.9259 12.7626 1.9259 10.5C1.9259 8.23737 2.74074 6.06742 4.19117 4.4675C5.64159 2.86758 7.60879 1.96875 9.66 1.96875ZM9.66 21C12.1846 21 14.6057 19.8938 16.3909 17.9246C18.176 15.9555 19.1789 13.2848 19.1789 10.5C19.1789 7.71523 18.176 5.04451 16.3909 3.07538C14.6057 1.10625 12.1846 0 9.66 0C7.13543 0 4.71427 1.10625 2.92913 3.07538C1.14399 5.04451 0.141113 7.71523 0.141113 10.5C0.141113 13.2848 1.14399 15.9555 2.92913 17.9246C4.71427 19.8938 7.13543 21 9.66 21ZM7.55543 12.8215C6.39532 11.5418 6.39532 9.46231 7.55543 8.18262C8.71555 6.90293 10.6007 6.90293 11.7608 8.18262C12.1104 8.56816 12.6756 8.56816 13.0214 8.18262C13.3672 7.79707 13.3709 7.17363 13.0214 6.79219C11.1622 4.74141 8.15036 4.74141 6.29121 6.79219C4.43205 8.84297 4.43205 12.1652 6.29121 14.216C8.15036 16.2668 11.1622 16.2668 13.0214 14.216C13.3709 13.8305 13.3709 13.207 13.0214 12.8256C12.6718 12.4441 12.1067 12.44 11.7608 12.8256C10.6007 14.1053 8.71555 14.1053 7.55543 12.8256V12.8215Z" fill="black"/>
</svg>
