<svg width="50" height="68" viewBox="0 0 50 68" fill="none" xmlns="http://www.w3.org/2000/svg">
<path d="M0.564606 12.7082C0.564606 5.68965 6.43493 0 13.6764 0H36.1745C43.4159 0 49.2863 5.68965 49.2863 12.7082C49.2863 17.1524 46.9325 21.0638 43.3673 23.3352C46.9325 25.6067 49.2863 29.518 49.2863 33.9622C49.2863 40.9808 43.4159 46.6705 36.1745 46.6705H35.8898C32.495 46.6705 29.4014 45.42 27.0729 43.3684V55.0777C27.0729 62.1898 21.0491 67.9239 13.747 67.9239C6.52367 67.9239 0.564606 62.2516 0.564606 55.2156C0.564606 50.7717 2.91813 46.8605 6.48303 44.589C2.91813 42.3175 0.564606 38.4062 0.564606 33.9622C0.564606 29.518 2.91833 25.6067 6.48348 23.3352C2.91833 21.0638 0.564606 17.1524 0.564606 12.7082ZM22.778 25.4167H13.6764C8.80691 25.4167 4.85948 29.2427 4.85948 33.9622C4.85948 38.6636 8.77647 42.4782 13.62 42.5076C13.6388 42.5075 13.6575 42.5075 13.6764 42.5075H22.778V25.4167ZM27.0729 33.9622C27.0729 38.6817 31.0203 42.5078 35.8898 42.5078H36.1745C41.044 42.5078 44.9914 38.6817 44.9914 33.9622C44.9914 29.2427 41.044 25.4167 36.1745 25.4167H35.8898C31.0203 25.4167 27.0729 29.2427 27.0729 33.9622ZM13.6764 46.6705C13.6575 46.6705 13.6388 46.6704 13.62 46.6704C8.77647 46.6997 4.85948 50.5143 4.85948 55.2156C4.85948 59.9179 8.85965 63.7612 13.747 63.7612C18.7132 63.7612 22.778 59.8561 22.778 55.0777V46.6705H13.6764ZM13.6764 4.1627C8.80691 4.1627 4.85948 7.98866 4.85948 12.7082C4.85948 17.4278 8.80691 21.2537 13.6764 21.2537H22.778V4.1627H13.6764ZM27.0729 21.2537H36.1745C41.044 21.2537 44.9914 17.4278 44.9914 12.7082C44.9914 7.98866 41.044 4.1627 36.1745 4.1627H27.0729V21.2537Z" fill="white"/>
</svg>
