<svg width="48" height="48" viewBox="0 0 48 48" fill="none" xmlns="http://www.w3.org/2000/svg">
<path d="M42.6341 0H5.63215C2.84649 0 0.586426 2.30357 0.586426 5.14286V42.8571C0.586426 45.6964 2.84649 48 5.63215 48H42.6341C45.4198 48 47.6799 45.6964 47.6799 42.8571V5.14286C47.6799 2.30357 45.4198 0 42.6341 0ZM26.2145 37.4357C26.2145 42.1071 23.5235 44.2393 19.6025 44.2393C16.06 44.2393 14.0102 42.375 12.959 40.1143L16.5646 37.8964C17.2583 39.15 17.8891 40.2107 19.4133 40.2107C20.8639 40.2107 21.789 39.6321 21.789 37.3714V22.0393H26.2145V37.4357ZM36.6844 44.2393C32.5742 44.2393 29.9147 42.2464 28.6217 39.6321L32.2273 37.5107C33.1734 39.0857 34.4138 40.2536 36.5898 40.2536C38.4189 40.2536 39.5962 39.3214 39.5962 38.025C39.5962 36.4821 38.3978 35.9357 36.369 35.025L35.2653 34.5429C32.0697 33.1607 29.9568 31.4143 29.9568 27.7393C29.9568 24.3536 32.4901 21.7821 36.4321 21.7821C39.2493 21.7821 41.2676 22.7786 42.7182 25.3929L39.2703 27.6429C38.5135 26.2607 37.6935 25.7143 36.4216 25.7143C35.1286 25.7143 34.3087 26.55 34.3087 27.6429C34.3087 28.9929 35.1286 29.5393 37.0313 30.3857L38.135 30.8679C41.8983 32.5071 44.0112 34.1893 44.0112 37.9607C44.0112 42.0107 40.8786 44.2393 36.6844 44.2393Z" fill="white"/>
</svg>
