<svg width="83" height="68" viewBox="0 0 83 68" fill="none" xmlns="http://www.w3.org/2000/svg">
<path d="M41.0202 67.3725C40.7478 67.3725 40.4755 67.2694 40.2291 67.0975L37.7391 65.1381C37.363 64.8631 37.5445 64.76 37.6742 64.7084C38.167 64.485 38.2708 64.4334 38.8025 64.0209C38.8544 63.9866 38.9322 64.0038 38.9841 64.0381L40.9034 65.5506C40.9683 65.6022 41.072 65.6022 41.1369 65.5506L48.6328 59.81C48.6977 59.7584 48.7495 59.6553 48.7495 59.535V48.0709C48.7495 47.9506 48.7106 47.8475 48.6328 47.7959L41.1369 42.0725C41.072 42.0209 40.9813 42.0209 40.9034 42.0725L33.4075 47.7959C33.3297 47.8475 33.2908 47.9678 33.2908 48.0709V59.535C33.2908 59.6381 33.3427 59.7413 33.4075 59.7928L35.4566 61.3569C36.5719 62.0959 37.2592 61.2194 37.2592 60.36V49.0334C37.2592 48.8787 37.35 48.7413 37.4797 48.7413H38.4264C38.5431 48.7413 38.6469 48.8616 38.6469 49.0334V60.36C38.6469 62.3366 37.8428 63.4538 36.4292 63.4538C36.0013 63.4538 35.6511 63.4538 34.7044 62.835L32.7331 61.3397C32.2533 60.9616 31.942 60.2741 31.942 59.535V48.0709C31.942 47.3319 32.2403 46.6272 32.7331 46.2663L40.2291 40.5256C40.7089 40.1647 41.3314 40.1647 41.7983 40.5256L49.2942 46.2663C49.7741 46.6444 50.0853 47.3319 50.0853 48.0709V59.535C50.0853 60.2741 49.787 60.9788 49.2942 61.3397L41.7983 67.0803C41.5778 67.2694 41.3055 67.3725 41.0202 67.3725ZM47.0766 56.0631C47.0766 53.9147 45.9872 53.3475 43.6787 52.935C41.3444 52.5225 41.1109 52.3163 41.1109 51.5944C41.1109 50.9928 41.3055 50.2022 43.0303 50.2022C44.5736 50.2022 45.1442 50.6491 45.3777 52.0241C45.4036 52.1616 45.4814 52.2475 45.5852 52.2475H46.5578C46.6227 52.2475 46.6745 52.2131 46.7134 52.1616C46.7523 52.0928 46.7783 52.0241 46.7653 51.9381C46.6097 49.5663 45.4295 48.4663 43.0303 48.4663C40.8905 48.4663 39.6195 49.6694 39.6195 51.6631C39.6195 53.8459 40.8905 54.4303 42.9395 54.7053C45.3906 55.0319 45.5852 55.4959 45.5852 56.1319C45.5852 57.2491 44.9108 57.7131 43.3286 57.7131C41.3444 57.7131 40.9034 57.06 40.7608 55.7538C40.7478 55.6163 40.657 55.5131 40.5403 55.5131H39.5677C39.4509 55.5131 39.3472 55.6334 39.3472 55.8053C39.3472 57.4725 40.0345 59.4663 43.3156 59.4663C45.7148 59.4663 47.0766 58.2288 47.0766 56.0631ZM54.1445 47.4522C54.1445 48.5006 53.4961 49.36 52.705 49.36C51.9139 49.36 51.2655 48.5006 51.2655 47.4522C51.2655 46.3694 51.9398 45.5444 52.705 45.5444C53.4831 45.5272 54.1445 46.3694 54.1445 47.4522ZM53.9111 47.4522C53.9111 46.5584 53.3664 45.8538 52.692 45.8538C52.0306 45.8538 51.4859 46.5584 51.4859 47.4522C51.4859 48.3459 52.0306 49.0678 52.692 49.0678C53.3664 49.0506 53.9111 48.3288 53.9111 47.4522ZM53.3275 48.5178H52.9903C52.9773 48.4147 52.9255 47.8647 52.9255 47.8475C52.8995 47.7272 52.8736 47.6584 52.7569 47.6584H52.4716V48.5178H52.1603V46.3694H52.718C52.9125 46.3694 53.2886 46.3694 53.2886 46.9366C53.2886 47.3319 53.0941 47.4178 52.9773 47.4694C53.1978 47.4866 53.2108 47.6756 53.2497 47.9506C53.2627 48.1225 53.2886 48.4147 53.3275 48.5178ZM52.9644 47.0053C52.9644 46.7131 52.8088 46.7131 52.7309 46.7131H52.4716V47.3147H52.718C52.9255 47.3147 52.9644 47.1256 52.9644 47.0053ZM17.8061 22.5131C17.8061 22.0491 17.6245 21.6366 17.3263 21.4131L9.37641 15.3459C9.24672 15.2428 9.09109 15.1913 8.93547 15.1741H8.85766C8.70203 15.1741 8.55938 15.2428 8.41672 15.3459L0.479844 21.4131C0.181563 21.6366 0 22.0663 0 22.5131L0.0129688 38.8413C0.0129688 39.0647 0.10375 39.2709 0.246406 39.3913C0.389063 39.5116 0.570625 39.5116 0.72625 39.3913L5.44688 35.7991C5.74516 35.5584 5.92672 35.1459 5.92672 34.6991V27.0678C5.92672 26.6209 6.10828 26.1913 6.40656 25.9678L8.41672 24.4381C8.57234 24.3178 8.72797 24.2663 8.89656 24.2663C9.06516 24.2663 9.23375 24.3178 9.37641 24.4381L11.3866 25.9678C11.6848 26.1913 11.8664 26.6209 11.8664 27.0678V34.6991C11.8664 35.1459 12.048 35.5756 12.3462 35.7991L17.0669 39.3913C17.2095 39.5116 17.4041 39.5116 17.5467 39.3913C17.6894 39.2881 17.7802 39.0647 17.7802 38.8413L17.8061 22.5131ZM61.2773 4.68969V35.0084C61.2773 35.4553 61.0958 35.885 60.7975 36.1084L52.8477 42.1928C52.5494 42.4163 52.1863 42.4163 51.888 42.1928L43.9381 36.1084C43.6398 35.885 43.4583 35.4553 43.4583 35.0084V22.8397C43.4583 22.3928 43.6398 21.9631 43.9381 21.7397L51.888 15.6553C52.1863 15.4319 52.5494 15.4319 52.8477 15.6553L54.8319 17.1678C55.0523 17.3397 55.3377 17.1163 55.3377 16.7897V0.633441C55.3377 0.152191 55.7267 -0.157184 56.0509 0.0834413L60.7845 3.58969C61.0828 3.79594 61.2773 4.22563 61.2773 4.68969ZM55.3117 26.8444C55.3117 26.7241 55.2598 26.6209 55.195 26.5694L52.4716 24.4725C52.3938 24.4209 52.303 24.4209 52.2252 24.4725L49.5017 26.5694C49.4239 26.6209 49.385 26.7241 49.385 26.8444V31.0209C49.385 31.1413 49.4369 31.2444 49.5017 31.2959L52.2252 33.3756C52.303 33.4272 52.3938 33.4272 52.4586 33.3756L55.182 31.2959C55.2598 31.2444 55.2988 31.1413 55.2988 31.0209V26.8444H55.3117ZM82.5202 26.7241C82.8184 26.5006 83 26.0709 83 25.6241V22.685C83 22.2381 82.8184 21.8084 82.5202 21.585L74.6222 15.5006C74.3239 15.2772 73.9608 15.2772 73.6625 15.5006L65.7127 21.585C65.4144 21.8084 65.2328 22.2381 65.2328 22.685V34.8538C65.2328 35.3178 65.4144 35.7303 65.7127 35.9538L73.6106 41.9178C73.8959 42.1413 74.2591 42.1413 74.5574 41.9178L79.3298 38.3944C79.6541 38.1538 79.6541 37.535 79.3298 37.2944L71.3281 31.21C71.1725 31.0897 71.0817 30.8834 71.0817 30.66V26.8444C71.0817 26.6209 71.1725 26.4147 71.3281 26.2944L73.8181 24.3866C73.9608 24.2663 74.1553 24.2663 74.298 24.3866L76.788 26.2944C76.9306 26.4147 77.0344 26.6209 77.0344 26.8444V29.835C77.0344 30.3163 77.4364 30.6256 77.7606 30.385L82.5202 26.7241ZM72.4953 27.3256C72.4434 27.3772 72.4045 27.4459 72.4045 27.5319V29.8694C72.4045 29.9553 72.4434 30.0413 72.4953 30.0756L74.0256 31.2444C74.0775 31.2959 74.1553 31.2959 74.2072 31.2444L75.7375 30.0756C75.7894 30.0241 75.8283 29.9553 75.8283 29.8694V27.5319C75.8283 27.4459 75.7894 27.36 75.7375 27.3256L74.2072 26.1569C74.1553 26.1053 74.0775 26.1053 74.0256 26.1569L72.4953 27.3256ZM39.5287 34.8022V22.7022C39.5287 22.2553 39.3213 21.8256 39.023 21.6022L31.0991 15.5522C30.8267 15.3459 30.4506 15.3116 30.1394 15.5522L22.2155 21.6022C21.9172 21.8256 21.7097 22.2381 21.7097 22.7022V34.8022C21.7097 35.2834 21.9561 35.6959 22.2284 35.9022L30.1653 41.9522C30.4766 42.1928 30.8397 42.1756 31.125 41.9522L39.0359 35.9022C39.2694 35.7303 39.438 35.4381 39.5028 35.0944C39.5158 35.0084 39.5287 34.9053 39.5287 34.8022ZM29.893 13.335L29.7892 13.4209H29.9319L29.893 13.335ZM39.7752 35.7131L39.7233 35.5928V35.7475L39.7752 35.7131Z" fill="white"/>
</svg>
