<svg width="58" height="53" viewBox="0 0 58 53" fill="none" xmlns="http://www.w3.org/2000/svg">
<path d="M10.7834 35.8247C11.3857 36.0377 11.9881 36.2388 12.5905 36.428C12.4901 36.8657 12.4008 37.3034 12.3116 37.7411C10.9395 44.7917 11.8431 50.4581 14.8884 52.3272C17.8221 54.1135 22.6076 52.2562 27.4489 47.7846C27.9285 47.3469 28.397 46.8855 28.8432 46.4242C29.1444 46.7317 29.4567 47.0393 29.7691 47.335C34.8446 52.1142 39.9312 54.1253 42.9765 52.2444C45.8991 50.4463 46.7692 45.1111 45.5422 38.4391C45.4195 37.7766 45.2856 37.126 45.1294 36.4635C45.8434 36.2506 46.5461 36.014 47.2043 35.7656C53.161 33.5771 57.4333 30.1228 57.4333 26.5502C57.4333 22.8593 52.8821 19.1566 46.6911 16.909C46.1892 16.7315 45.6872 16.5541 45.1741 16.4003C45.3414 15.6905 45.4864 14.9926 45.6203 14.271C46.7915 7.70546 45.8768 2.50038 42.9542 0.714093C39.9424 -1.13134 34.8781 0.761412 29.9476 5.33952C29.5571 5.70624 29.1667 6.08479 28.7763 6.487C28.2855 5.97832 27.7724 5.4933 27.2592 5.02011C22.4849 0.666773 17.7664 -1.09586 14.8549 0.690432C11.8431 2.53587 10.8615 8.13133 12.1331 14.9453C12.2335 15.4658 12.3451 15.9981 12.4678 16.5423C12.1108 16.6487 11.765 16.767 11.4192 16.8853C4.9828 19.1448 0.32003 22.8002 0.32003 26.5502C0.32003 30.1346 4.71508 33.6126 10.7834 35.8247ZM25.876 45.8682C21.7264 49.701 17.8556 51.2034 16.0931 50.1269C14.2079 48.9794 13.4829 44.3421 14.6653 38.2498C14.7434 37.8476 14.8215 37.4572 14.9219 37.0668C17.3983 37.6583 19.9081 38.0842 22.4291 38.3208C23.8793 40.5211 25.4633 42.6268 27.1811 44.6024C26.7461 45.0401 26.3222 45.4541 25.876 45.8682ZM38.7823 20.4106C38.2134 19.3814 37.6333 18.3522 37.0198 17.3467C38.76 17.5478 40.489 17.8435 42.1957 18.2339C41.7049 19.9374 41.0914 21.7 40.3774 23.4981C39.8643 22.4571 39.34 21.4279 38.7823 20.4106ZM42.1622 34.6417C40.5559 35.0203 38.8492 35.3279 37.0756 35.5645C37.6668 34.5826 38.2468 33.5771 38.7934 32.5597C39.34 31.5542 39.8755 30.525 40.3774 29.484C41.0802 31.2466 41.6714 32.9738 42.1622 34.6417ZM39.1058 26.4911C38.3695 28.1236 37.5664 29.7206 36.7186 31.2939C35.8708 32.8673 34.9561 34.3933 33.9968 35.8957C32.3236 36.0258 30.6169 36.0968 28.8767 36.0968C27.1365 36.0968 25.4187 36.0258 23.7566 35.8957C22.8084 34.4052 21.9048 32.8791 21.0459 31.3176C20.187 29.7561 19.3838 28.1591 18.6253 26.5384C19.3727 24.9059 20.1758 23.297 21.0348 21.7119C21.8825 20.1385 22.7861 18.6125 23.7343 17.0983C25.3963 16.9681 27.1254 16.909 28.8767 16.909C30.628 16.909 32.3236 16.9681 33.9633 17.0746C34.9338 18.577 35.8485 20.1148 36.7075 21.6882C37.5664 23.2615 38.3584 24.8586 39.1058 26.4911ZM18.9599 20.4342C18.391 21.4753 17.8556 22.5281 17.3313 23.5928C16.6174 21.8775 15.9927 20.1385 15.4461 18.3522C17.1752 17.9382 18.9265 17.6188 20.689 17.4058C20.0866 18.3995 19.5177 19.4169 18.9599 20.4342ZM17.3536 29.484C17.8779 30.525 18.4134 31.566 18.9711 32.5834C19.5177 33.5889 20.0866 34.5826 20.6778 35.5645C18.8819 35.3279 17.164 35.0085 15.5577 34.6181C16.0708 32.8673 16.6732 31.1638 17.3536 29.484ZM28.8544 42.7924C27.6831 41.4438 26.5788 40.0243 25.5525 38.5574C27.7612 38.6639 29.981 38.6639 32.1897 38.5574C31.0965 40.0834 29.9699 41.503 28.8544 42.7924ZM41.7941 50.044C39.9201 51.2034 35.7593 49.5472 31.3754 45.4305C31.0965 45.1702 30.8177 44.8863 30.5276 44.6024C32.2566 42.6268 33.8518 40.5211 35.3131 38.3208C37.8341 38.0842 40.3328 37.6702 42.8092 37.0905C42.9542 37.6938 43.0769 38.309 43.1996 38.9241C44.2482 44.6497 43.5566 48.9675 41.7941 50.044ZM44.5271 18.8609C44.9956 19.0028 45.4529 19.1566 45.9103 19.3222C48.2863 20.1148 50.9858 21.3688 52.9379 23.0131C54.0646 23.8412 54.8231 25.1188 55.035 26.5502C55.035 28.7151 51.5101 31.4832 46.4234 33.3641C45.7876 33.6007 45.1406 33.8137 44.4936 34.0148C43.7351 31.4477 42.8204 28.928 41.7607 26.4911C42.8315 24.0187 43.7574 21.4634 44.5271 18.8609ZM31.5204 7.26776C33.361 5.48147 35.4916 4.06191 37.8118 3.09187C39.05 2.46489 40.4778 2.40574 41.7495 2.93808C43.5231 4.02641 44.2594 8.20231 43.2554 13.8214C43.1327 14.4839 42.9989 15.1464 42.8427 15.797C40.344 15.2292 37.823 14.8388 35.2685 14.6377C33.796 12.4255 32.1786 10.308 30.4495 8.3206C30.8065 7.95388 31.1635 7.59899 31.5204 7.26776ZM28.7875 10.1424C29.9253 11.4437 31.0631 12.8869 32.1674 14.4366C31.0965 14.3893 29.9922 14.3656 28.8767 14.3656C27.7277 14.3656 26.6011 14.3893 25.4856 14.4484C26.5118 12.946 27.6162 11.5146 28.7875 10.1424ZM14.2079 6.59347C14.3083 5.15024 14.9776 3.80165 16.0485 2.89076C17.8221 1.80243 21.6037 3.222 25.6864 6.93653C26.1549 7.3624 26.6234 7.82376 27.1031 8.29695C25.3963 10.2962 23.8235 12.4137 22.3957 14.6377C19.8412 14.8624 17.2979 15.2765 14.788 15.8798C14.6764 15.3948 14.5761 14.9098 14.4868 14.4366C13.9402 11.8814 13.851 9.21967 14.2079 6.59347ZM12.1777 19.3104C12.4901 19.204 12.8024 19.0975 13.1259 19.0028C13.9068 21.5817 14.8661 24.1015 15.9704 26.5502C14.8995 28.9635 13.996 31.4477 13.2375 33.9911C12.6574 33.8137 12.0997 33.6244 11.5642 33.4351C6.36601 31.5424 2.71834 28.7269 2.71834 26.5739C2.71834 24.2552 6.61142 21.2623 12.1777 19.3104ZM28.8767 21.0849C26.0545 21.0849 23.7677 23.51 23.7677 26.5029C23.7677 29.4958 26.0545 31.9209 28.8767 31.9209C31.6989 31.9209 33.9857 29.4958 33.9857 26.5029C33.9857 23.51 31.6989 21.0849 28.8767 21.0849Z" fill="#FFFEFE"/>
</svg>
