<svg width="59" height="60" viewBox="0 0 59 60" fill="none" xmlns="http://www.w3.org/2000/svg">
<path d="M6.52056 19.5242L18.4131 53.1532C10.0942 48.9919 4.36467 40.1855 4.36467 30C4.36467 26.2621 5.13798 22.7298 6.52056 19.5242ZM46.1116 28.7056C46.1116 25.5242 45.0102 23.3226 44.0612 21.6048C42.7958 19.4879 41.6124 17.6855 41.6124 15.5685C41.6124 13.1976 43.3464 10.996 45.7953 10.996C45.9007 10.996 46.0062 11.0081 46.1233 11.0202C41.6827 6.82258 35.7774 4.25806 29.2863 4.25806C20.5807 4.25806 12.9179 8.86694 8.45383 15.8589C9.03967 15.8831 9.59036 15.8952 10.059 15.8952C12.6602 15.8952 16.7025 15.5685 16.7025 15.5685C18.0499 15.4839 18.2022 17.5282 16.8665 17.6855C16.8665 17.6855 15.5191 17.8427 14.0193 17.9274L23.0998 45.7984L28.5599 28.9113L24.6816 17.9274C23.3342 17.8427 22.0687 17.6855 22.0687 17.6855C20.7213 17.6008 20.8853 15.4839 22.2211 15.5685C22.2211 15.5685 26.3337 15.8952 28.7825 15.8952C31.3836 15.8952 35.4259 15.5685 35.4259 15.5685C36.7733 15.4839 36.9256 17.5282 35.5899 17.6855C35.5899 17.6855 34.2425 17.8427 32.7427 17.9274L41.753 45.5927L44.2369 37.0161C45.2914 33.4597 46.1116 30.9073 46.1116 28.7056ZM29.7198 32.25L22.2445 54.6895C24.4824 55.3669 26.8375 55.7419 29.2863 55.7419C32.1921 55.7419 34.9689 55.2218 37.5583 54.2782C37.488 54.1694 37.4295 54.0484 37.3826 53.9274L29.7198 32.25ZM51.1615 17.6492C51.267 18.4718 51.3256 19.3427 51.3256 20.2984C51.3256 22.9113 50.8569 25.8387 49.4275 29.5161L41.8115 52.246C49.2283 47.7823 54.2079 39.496 54.2079 30C54.2079 25.5242 53.1065 21.3145 51.1615 17.6492ZM58.3439 30C58.3439 46.5484 45.3032 60 29.2863 60C13.2577 60 0.228638 46.5363 0.228638 30C0.228638 13.4516 13.2577 0 29.2863 0C45.3032 0 58.3439 13.4516 58.3439 30ZM57.0082 30C57.0082 14.2137 44.565 1.37903 29.2863 1.37903C13.9959 1.37903 1.56435 14.2137 1.56435 30C1.56435 45.7863 14.0076 58.621 29.2863 58.621C44.5767 58.621 57.0082 45.7863 57.0082 30Z" fill="white"/>
</svg>
